<?xml version="1.0" encoding="utf-8"?>
<!-- Svg Vector Icons : http://www.onlinewebfonts.com/icon -->
<!DOCTYPE svg PUBLIC "-//W3C//DTD SVG 1.1//EN" "http://www.w3.org/Graphics/SVG/1.1/DTD/svg11.dtd">
<svg version="1.1" xmlns="http://www.w3.org/2000/svg" xmlns:xlink="http://www.w3.org/1999/xlink" x="0px" y="0px" viewBox="0 0 1000 1000" enable-background="new 0 0 1000 1000" xml:space="preserve">
<metadata> Svg Vector Icons : http://www.onlinewebfonts.com/icon </metadata>
<g><path d="M918.1,355.3c2-2,4-6,4-10V179.7C922.1,91.9,850.2,22,764.4,22H239.5C151.7,22,81.8,93.9,81.8,179.7v79.8H26c-8,0-16,8-16,16c0,8,8,16,16,16h55.9v109.8H26c-8,0-16,8-16,16c0,8,8,16,16,16h55.9v109.8H26c-8,2-16,8-16,18c0,8,8,16,16,16h55.9v109.8H26c-8,0-16,8-16,16s8,16,16,16h55.9v101.8c0,87.8,71.8,157.7,157.7,157.7h522.9c87.8,0,157.7-71.8,157.7-157.7V630.7c0-4-2-6-4-10c41.9-6,73.8-41.9,73.8-85.8v-93.8C991.9,397.2,960,361.3,918.1,355.3z M888.1,822.3c0,69.9-55.9,125.7-125.7,125.7H239.5c-69.9,0-125.7-55.9-125.7-125.7V720.5h55.9c8,0,16-8,16-16c0-8-8-16-16-16h-55.9V578.8h55.9c8,0,16-8,16-16c0-8-8-16-16-16h-55.9V437.1h55.9c8,0,16-8,16-16c0-8-8-20-18-20h-53.9V291.4h55.9c8,0,16-8,16-16c0-8-8-16-16-16h-55.9v-79.8c0-69.9,55.9-125.7,125.7-125.7h522.9c69.9,0,125.7,55.9,125.7,125.7v165.6c0,2,0,6,2,8H738.4c-47.9,0-87.8,39.9-87.8,87.8v95.8c0,47.9,39.9,87.8,87.8,87.8h151.7c-2,2-2,4-2,8L888.1,822.3z M960,536.9c0,29.9-23.9,55.9-55.9,55.9H738.4c-29.9,0-55.9-23.9-55.9-55.9v-95.8c0-29.9,23.9-55.9,55.9-55.9h165.6c29.9,0,55.9,23.9,55.9,55.9V536.9z"/></g>
</svg>